<?xml version="1.0" encoding="UTF-8" standalone="no"?>
<!-- Created with Inkscape (http://www.inkscape.org/) -->
<svg xmlns:inkscape="http://www.inkscape.org/namespaces/inkscape" xmlns:rdf="http://www.w3.org/1999/02/22-rdf-syntax-ns#" xmlns="http://www.w3.org/2000/svg" xmlns:cc="http://creativecommons.org/ns#" xmlns:dc="http://purl.org/dc/elements/1.1/" xmlns:sodipodi="http://sodipodi.sourceforge.net/DTD/sodipodi-0.dtd" xmlns:svg="http://www.w3.org/2000/svg" xmlns:ns1="http://sozi.baierouge.fr" xmlns:xlink="http://www.w3.org/1999/xlink" id="svg1" sodipodi:docname="einstein_01.svg" inkscape:export-ydpi="11.510000" inkscape:export-filename="/root/img/download/openclipart-0.12/people/einstein_01.png" viewBox="0 0 625.69 791.83" sodipodi:version="0.32" inkscape:export-xdpi="11.510000" version="1.0" inkscape:output_extension="org.inkscape.output.svg.inkscape" inkscape:version="0.46" sodipodi:docbase="/root/img/download/openclipart-0.12/people">
  <sodipodi:namedview id="base" bordercolor="#666666" inkscape:pageshadow="2" inkscape:window-width="1280" pagecolor="#ffffff" inkscape:zoom="0.68114620" inkscape:window-x="-4" showgrid="false" borderopacity="1.0" inkscape:cx="289.09253" inkscape:cy="467.40484" inkscape:window-y="-4" inkscape:window-height="968" inkscape:pageopacity="0.0000000"/>
  <path id="path1812" sodipodi:nodetypes="ccccccccccc" style="fill-rule:evenodd;fill:#ffffff" d="m314.89 139.89c-163.28 26.17-176.04 39.36-205.67 210.86 13.44 16.41 26.88 30.87 40.33 47.27 2.89 36.74 8.38 66.34 17.43 110.22-48.45 78.35-19.04 121.01 1.93 158.49 26.39 5.19 350.58 48.88 331.55-138.2-29.63-24.44-30.71-15.14-51.26-20.76 8.65-40.23 17.3-80.46 25.95-120.68 7.79-13.84 15.57-27.69 23.36-41.53-3.89-49.74-7.79-99.48-11.68-149.23-48.44-52.33-94.29-69.64-168.69-55.79"/>
  <g id="g2389" transform="matrix(.83169 0 0 .83169 8.38 -6.871)">
    <path id="path1731" style="fill-rule:evenodd;fill:#aaaaaa" d="m190.63 301.61c-10.03 0-14.37 49.76-14.37 60.06 0 10.94 3.73 31.72-1.3 41.78 0 17.55-12.14 15.67-22.2 15.67-9.34 0-14.36-6.4-14.36 7.83 0 12.96 4.61 34.64 14.36 44.39 16.94 16.94 19.59 36.04 19.59 60.06 0 17.59 0.86 50.28-9.14 65.29-11.44 22.88-48.39 24.8-70.508 24.8-23.919 0-46.378-21.67-50.921-44.39-6.418-32.09 9.716-56.41 15.668-86.17 11.359-34.08-4.144-66.14 13.057-100.54 10.61-31.83-12.517-49.48-7.834-82.25 0-22.91 10.883-45.69 3.917-66.59 0-18.47 17.343-37.56 33.951-43.09 26.98-9 11.5-14.36-9.144-14.36-15.521 0 39.364-38.62 45.694-41.78 12.97-6.48 52.23-15.94 52.23-35.26 0-36.522-24.17-21.523 11.75-57.445 25.96-25.953 51.81-13.235 83.56-19.585 21.85 0 37.18 22.196 58.76 22.196 23.67 11.837 33.19-25.362 44.39-36.558 14.87-14.865 28.69-5.274 39.17 10.445 7.9 13.158 10.54 44.422 26.11 49.615 31.19 0 53.55-19.585 84.87-19.585 17.27 2.468 88.82 20.22 45.7 41.782-17.42 11.615-43.92 2.021-23.5 32.645 19.18 19.18 47.8 15.55 62.67 37.86 15.52 31.04-35.01 10.38-3.92 35.25 33.57 25.18-4.77 24.39 7.84 49.62 15.2 12.16 48.15 38.02 27.42 58.75-6.8 20.39 5.58 39.53 20.89 54.84 7.93 15.87 5.22 62.31 5.22 80.95 0 37.61-30.4 60.43-14.36 100.54 4.37 21.86 3.03 58.78-3.92 79.64-14.29 21.43-12.24 55.7-47 47.01-22.57 0-31.34-11.37-31.34-32.65 0-27.87-16.97-44.31-16.97-67.89-4.91-19.62 1.3-42.36 1.3-62.67 0-10-5.22-16.58-5.22-26.11 0-13.24-3.57-13.41 6.53-23.51 0-13.26 13.09-27.38 1.3-39.17-9.31-18.63-15.18-34.51-6.52-56.14 0-22.72-2.62-45.35-2.62-67.89-7.6-22.82-26.57-40.56-33.94-62.68-8.37-12.55-24.71-35.25-40.48-35.25-24.96-6.24-47.35 7.63-73.12-7.83-26.98-9-48.73-7.11-75.72-2.61-25.81 11.06-50.85 3.45-75.73 11.75-9.81 4.9-18.99 5.57-28.73 10.44-8.07 16.16-23.76 14.12-28.72 33.95-4.46 8.93-7.84 27.77-7.84 37.86-4.85 4.85-6.52 8.89-6.52 16.98z"/>
    <g id="g1735" transform="translate(1.063 -1.063)">
      <path id="path1733" sodipodi:rx="20.237734" sodipodi:ry="18.932074" style="fill-rule:evenodd;fill:#444444" sodipodi:type="arc" d="m305.52 456.33a20.238 18.932 0 1 1 -40.47 0 20.238 18.932 0 1 1 40.47 0z" transform="matrix(1.2413 0 0 1.0404 -71.105 -19.466)" sodipodi:cy="456.32828" sodipodi:cx="285.28677"/>
      <path id="path1734" sodipodi:rx="20.237734" sodipodi:ry="18.932074" style="fill-rule:evenodd;fill:#444444" sodipodi:type="arc" d="m305.52 456.33a20.238 18.932 0 1 1 -40.47 0 20.238 18.932 0 1 1 40.47 0z" transform="matrix(1.2413 0 0 1.0404 103.76 -7.7728)" sodipodi:cy="456.32828" sodipodi:cx="285.28677"/>
    </g>
    <path id="path1738" style="fill-rule:evenodd;fill:#aaaaaa" d="m258.31 642.05c7.95 0 34.89-4.07 45.7-14.88 3.69-3.69 19.17-7.41 23.39-3.19 8.16 5.44 21.65 14.88 31.89 14.88 10.88 2.72 32.08 1.93 40.39-6.38 9.67-3.22 30.48-11.81 40.4-8.5 6.6 0 14.88 13.5 14.88 20.2 3.83 3.83 3.86 22.32-3.19 22.32-5.92 5.91-15.16 6.38-23.39 6.38-9.64 0-29.35-8.92-37.2-1.07-15.41 5.14-24.92 9.57-41.46 9.57-11.23-3.74-20.65-10.07-31.89-13.82-11.48 0-23.46-6.87-35.08-1.06-10.66 0-19.46 3.19-29.76 3.19-9.49 0-2.49-15.58 1.06-19.14 0-2.14 3.6-7.41 4.26-8.5z"/>
    <g id="g1741">
      <path id="path1739" style="fill-rule:evenodd;fill:#aaaaaa" d="m233.86 389.06c-2.59 0-15.95 14.42-15.95 20.19-5.01 5.01-5.31 14.42-5.31 21.26 0 5.45 7.57 12.63 12.75 7.45 7.28 0 19.43-4.55 24.45-9.57 4.01-6.02 13.69-9.57 21.26-9.57 10.17 0 19.94 0.93 28.7 5.32 4.48 4.47 17.58 8.5 24.45 8.5 5.05 5.05 15.23 3.19 21.26 3.19 6.12-6.12-1.37-18.38-7.44-24.45-6.13-6.13-19.62-6.62-27.64-10.63-7.77-7.77-21.38-17.76-31.89-21.26-6.21-6.21-22.26-4.81-29.76-1.06-4 2-21.26 13.83-21.26 11.69"/>
      <path id="path1740" style="fill-rule:evenodd;fill:#aaaaaa" d="m415.63 412.44c-11.72 7.81-9.83 19.4-17.01 26.58 0 6.3 15.62 6.54 20.2 4.25 8.01 0 16.62-7.44 25.51-7.44 3.63-3.63 20.14-6.38 25.51-6.38 9.1 0 20 5.12 26.58 11.69 5.38 5.39 8.84 8.84 13.81 13.82 6.29 0 15.95 1.45 15.95-7.44 8.12-8.11-3.67-19.9-10.63-23.38-7.87-7.88-20.08-10.04-29.76-14.89-10.55-5.27-17.3-9.56-29.77-9.56-9.76 0-17.65 8.5-26.57 8.5-4.1 2.05-9.11 3.31-13.82 4.25z"/>
    </g>
    <g id="g1643">
      <path id="path1542" style="stroke:#000000;stroke-width:1pt;fill:none" d="m257.22 379.95c-17.71 0-39.38 25.44-45.7 44.39 0 17.03 8.18 21.37 24.8 13.06 12.25-6.13 25.04-16.98 39.17-16.98 19.58 0 32.51 9.08 48.31 16.98 9.76 4.87 17.93 5.57 24.81-1.31 6.01-12.02-4.28-18.65-11.75-26.11-13.94-4.65-24.76-11.73-37.86-18.28-8.8-4.4-13.57-11.75-23.51-11.75-3.37-3.38-14.76-0.59-18.27 0z"/>
      <path id="path1543" style="stroke:#000000;stroke-width:1pt;fill:none" d="m438.7 403.45c-16.96 8.48-25.65 13.9-37.86 26.11 0 12.09-3.13 16.98 14.36 16.98 12.53 0 27.2-7.76 39.17-11.76 11.47 0 25.85-5.48 35.25 3.92 7.32 3.66 14.32 16.98 22.2 16.98 9.38 4.69 16.97-5.96 16.97-14.37-6.23-12.45-16.19-21.15-28.72-27.42-6.73-6.73-23.78-11.75-32.64-11.75-5 0-16.6-4.29-20.89 0-3.53 0-0.88-0.08-7.84 1.31z"/>
      <path id="path1545" style="stroke:#000000;stroke-width:1pt;fill:none" d="m331.64 557.52c-21.28 15.95-50.48 38.29-62.67 62.67"/>
      <path id="path1546" style="stroke:#000000;stroke-width:1pt;fill:none" d="m423.03 564.05c4.79 33.5 48.55 64.8 31.34 99.23"/>
      <path id="path1547" style="stroke:#000000;stroke-width:1pt;fill:none" d="m365.58 466.12c0 16.87-1.3 43.9-1.3 65.28 0 12.43-3.95 19.68-7.83 31.34-6.86 10.28-14.37 29.24-14.37 41.78"/>
      <path id="path1548" style="stroke:#000000;stroke-width:1pt;fill:none" d="m353.83 476.57c-11.32 22.65-7.92 49.88-15.66 73.11 0 12.77-6.13 38.77-15.67 48.31v15.67"/>
      <path id="path1549" style="stroke:#000000;stroke-width:1pt;fill:none" d="m325.11 611.05c5.47-1.83 28.63-0.18 31.34 5.22 5.06 5.06 11.78 10.42 19.58 2.61 5.74-5.74 11.74-10.44 20.89-10.44 3.94 0 28.73 7.2 28.73-1.31"/>
      <path id="path1550" style="stroke:#000000;stroke-width:1pt;fill:none" d="m231.1 462.2c12.79-6.39 28.73-26.11 43.09-26.11 11.16 0 23.2-0.3 31.33 7.83 6.68 3.34 23.66 16.98 30.03 16.98 2 1.99 1.04 1.85 2.62-1.31"/>
      <path id="path1551" style="stroke:#000000;stroke-width:1pt;fill:none" d="m266.35 440.01c-6.66 6.66-5.23 20.87 5.23 31.33 13.9 0 17.72 0.93 30.03-5.22 0-7.36 8.56-16.24 1.3-23.5"/>
      <path id="path1552" style="stroke:#000000;stroke-width:1pt;fill:none" d="m411.28 464.82c0.22-0.08 24.34-15.67 36.56-15.67 13.74 0 23.67 2.04 35.25 7.83 2.44 2.44 13.82 10.45 16.98 10.45"/>
      <path id="path1553" style="stroke:#000000;stroke-width:1pt;fill:none" d="m440.01 449.15c-6.99 10.48-7.36 30.03 9.14 30.03 8.9 0 30.03-2.77 30.03-14.36 0-4.46-2.61-6.29-2.61-10.45"/>
      <path id="path1554" style="stroke:#000000;stroke-width:1pt;fill:none" d="m236.32 455.68c8.38 8.37 21.92 23.5 35.26 23.5 14 0 28.09-6.53 40.47-6.53 6.13-3.07 19.59-9.35 19.59-16.97"/>
      <path id="path1555" style="stroke:#000000;stroke-width:1pt;fill:none" d="m411.28 460.9c0 4.21 12.16 24.81 26.12 24.81 12.31 0 24.84 2.61 37.86 2.61 10.09-5.05 17.5-8.37 24.81-15.67 2.72 0 3.28-4.55 1.3-6.53"/>
      <path id="path1556" style="stroke:#000000;stroke-width:1pt;fill:none" d="m220.66 368.2c0 0.37 35.99-22.2 83.56-22.2 25.42 0 52.63 6.96 77.03 13.06 3.78 1.89 1.64 1.3 6.53 1.3"/>
      <path id="path1557" style="stroke:#000000;stroke-width:1pt;fill:none" d="m228.49 343.39c35.51-20.29 78.38-23.06 117.51-14.36 30.48 4.35 61.55 6.9 91.4 14.36"/>
      <path id="path1558" style="stroke:#000000;stroke-width:1pt;fill:none" d="m263.74 300.3c55.42 0 110.13 4.27 165.82-1.3 39.67 0 77.89-5.68 108.37 24.8 1.19 2.38 2.21 8.25 5.22 5.23"/>
      <path id="path1559" style="stroke:#000000;stroke-width:1pt;fill:none" d="m441.31 325.11c13.34 3.33 76.01 28.45 83.57 20.89"/>
      <path id="path1560" style="stroke:#000000;stroke-width:1pt;fill:none" d="m408.67 373.42c49.47-24.74 112.29 6.64 112.29 1.3"/>
      <path id="path1561" style="stroke:#000000;stroke-width:1pt;fill:none" d="m280.72 279.41c-29.67 6.59-53.08 17.1-78.34 33.95"/>
      <path id="path1562" style="stroke:#000000;stroke-width:1pt;fill:none" d="m242.85 258.52c-19.51 0-34.07 18.07-50.92 24.81"/>
      <path id="path1563" style="stroke:#000000;stroke-width:1pt;fill:none" d="m228.49 221.96c-17.63-14.1-39.1-33.13-60.06-15.67"/>
      <path id="path1564" style="stroke:#000000;stroke-width:1pt;fill:none" d="m210.21 224.57c-20.91-5.7-47.01-10.7-65.28 3.92"/>
      <path id="path1565" style="stroke:#000000;stroke-width:1pt;fill:none" d="m208.91 238.94c-28.48 9.49-48.4 36.55-82.26 36.55"/>
      <path id="path1566" style="stroke:#000000;stroke-width:1pt;fill:none" d="m199.77 251.99c-8.31 13.29-50.55 77.41-67.9 60.06"/>
      <path id="path1567" style="stroke:#000000;stroke-width:1pt;fill:none" d="m198.46 299c-18.65 30.3-36.56 47.9-73.12 53.53"/>
      <path id="path1568" style="stroke:#000000;stroke-width:1pt;fill:none" d="m189.32 352.53c-13.88 6.94-35.55 15.27-47 0"/>
      <path id="path1569" style="stroke:#000000;stroke-width:1pt;fill:none" d="m190.63 368.2c-7.02 9.56-74.43 72.2-74.43 32.64"/>
      <path id="path1570" style="stroke:#000000;stroke-width:1pt;fill:none" d="m151.46 426.95c-23.62-35.42-22.59 28.44 19.58 60.06"/>
      <path id="path1575" style="stroke:#000000;stroke-width:1pt;fill:none" d="m165.82 497.46c-7.74 28.37-2.61 54.77-2.61 83.56"/>
      <path id="path1576" style="stroke:#000000;stroke-width:1pt;fill:none" d="m148.85 481.79c-21.78 17.42-35.93 134.76-74.427 100.53"/>
      <path id="path1577" style="stroke:#000000;stroke-width:1pt;fill:none" d="m129.26 476.57c-6.37 12.73-44.181 72.59-58.754 48.31"/>
      <path id="path1578" style="stroke:#000000;stroke-width:1pt;fill:none" d="m125.34 443.92c-16.98-3.39-68.774-12.65-54.834 22.2"/>
      <path id="path1579" style="stroke:#000000;stroke-width:1pt;fill:none" d="m114.9 376.03c-15.721-9.43-22.675-33.71-45.7-22.2"/>
      <path id="path1580" style="stroke:#000000;stroke-width:1pt;fill:none" d="m113.59 323.8c-6.96-6.96-49.901-38.44-45.696-30.03"/>
      <path id="path1581" style="stroke:#000000;stroke-width:1pt;fill:none" d="m118.82 282.02c-6.31-12.61-48.314-61.47-48.314-24.8"/>
      <path id="path1582" style="stroke:#000000;stroke-width:1pt;fill:none" d="m137.09 235.02c-19.52-9.76-72.495-21.74-24.8-53.53"/>
      <path id="path1585" style="stroke:#000000;stroke-width:1pt;fill:none" d="m178.88 143.62c-11.17 26.05-42.25 44.68-70.51 35.26"/>
      <path id="path1586" style="stroke:#000000;stroke-width:1pt;fill:none" d="m257.22 197.15c-22.18-14.78-85.88-23.48-47.01-45.69"/>
      <path id="path1587" style="stroke:#000000;stroke-width:1pt;fill:none" d="m278.11 197.15c-61.67-107.91 45.58-106.07-6.53-161.9"/>
      <path id="path1588" style="stroke:#000000;stroke-width:1pt;fill:none" d="m315.97 185.4c-20.39-27.19 53.55-135.64-15.67-127.95"/>
      <path id="path1589" style="stroke:#000000;stroke-width:1pt;fill:none" d="m346 197.15c-6.34-23.26 36.61-151.49-6.53-122.73"/>
      <path id="path1590" style="stroke:#000000;stroke-width:1pt;fill:none" d="m301.61 250.69c37.33 12.44 129.01-4.56 182.79 5.22 8.74 0 13.93 0 16.97 9.14"/>
      <path id="path1591" style="stroke:#000000;stroke-width:1pt;fill:none" d="m390.39 40.475c43.33 31.772 27.71 115.4-20.89 139.7"/>
      <path id="path1592" style="stroke:#000000;stroke-width:1pt;fill:none" d="m537.93 67.894c-47.41 2.964-163.33 72.966-116.2 131.88"/>
      <path id="path1593" style="stroke:#000000;stroke-width:1pt;fill:none" d="m564.05 94.008c-67.19 0-95.32 58.772-110.99 116.2"/>
      <path id="path1594" style="stroke:#000000;stroke-width:1pt;fill:none" d="m493.54 197.15c30.33-60.65 64.12-23.37 107.06-41.78"/>
      <path id="path1595" style="stroke:#000000;stroke-width:1pt;fill:none" d="m520.96 219.35c12.16-36.48 63.48-20.77 90.09-27.42"/>
      <path id="path1596" style="stroke:#000000;stroke-width:1pt;fill:none" d="m548.38 244.16c28.82-19.22 53.67 5.68 83.56-15.67"/>
      <path id="path1597" style="stroke:#000000;stroke-width:1pt;fill:none" d="m561.43 283.33c17.68-17.68 67.47 8.7 92.71-3.92"/>
      <path id="path1598" style="stroke:#000000;stroke-width:1pt;fill:none" d="m569.27 319.89c21.25-7.09 44.53-11.09 63.98-22.2"/>
      <path id="path1599" style="stroke:#000000;stroke-width:1pt;fill:none" d="m578.41 373.42c13.18-19.78 63.1-65.94 90.09-45.7"/>
      <path id="path1600" style="stroke:#000000;stroke-width:1pt;fill:none" d="m557.52 415.2c27.58 18.39 3.45 60.09-11.75 78.34"/>
      <path id="path1601" style="stroke:#000000;stroke-width:1pt;fill:none" d="m586.24 432.17c24.56-16.37 54.04-33.09 82.26-16.97"/>
      <path id="path1602" style="stroke:#000000;stroke-width:1pt;fill:none" d="m600.6 450.45c18.01-16.01 24.07-5.05 41.78 7.84"/>
      <path id="path1603" style="stroke:#000000;stroke-width:1pt;fill:none" d="m571.88 475.26c36 54 31.71 53.64 54.84 120.12 30.73 23.75 18.35 15.97 35.25 26.11"/>
      <path id="path1604" style="stroke:#000000;stroke-width:1pt;fill:none" d="m630.63 496.15c4.34 25.99 15.64 53.46 27.42 77.03"/>
      <path id="path1605" style="stroke:#000000;stroke-width:1pt;fill:none" d="m587.55 566.66c1.51 24.28-0.39 46.5 22.19 60.06"/>
      <path id="path1606" style="stroke:#000000;stroke-width:1pt;fill:none" d="m261.13 642.38c-3.46 5.77-15.1 34.32-9.14 31.34"/>
      <path id="path1607" style="stroke:#000000;stroke-width:1pt;fill:none" d="m274.19 641.08c-2.39 10.37-6.53 23.12-6.53 33.95"/>
      <path id="path1608" style="stroke:#000000;stroke-width:1pt;fill:none" d="m284.63 635.86c-4.2 10.5-6.52 21.3-6.52 32.64"/>
      <path id="path1609" style="stroke:#000000;stroke-width:1pt;fill:none" d="m288.55 637.16c-1.56 7.79-3.92 16.73-3.92 24.81"/>
      <path id="path1610" style="stroke:#000000;stroke-width:1pt;fill:none" d="m302.91 629.33c-1.32 4.85-10.23 25.56-3.91 28.72"/>
      <path id="path1611" style="stroke:#000000;stroke-width:1pt;fill:none" d="m302.91 639.77c-3.39 12.74-8.42 29.27 1.31 13.06"/>
      <path id="path1612" style="stroke:#000000;stroke-width:1pt;fill:none" d="m314.66 628.02c-0.75 4.89-7.32 39.17-5.22 39.17"/>
      <path id="path1613" style="stroke:#000000;stroke-width:1pt;fill:none" d="m322.5 628.02c0 9.29-1.61 53.14 1.3 44.4"/>
      <path id="path1614" style="stroke:#000000;stroke-width:1pt;fill:none" d="m332.94 634.55c0 2.87 1.45 63.71 10.45 45.7"/>
      <path id="path1615" style="stroke:#000000;stroke-width:1pt;fill:none" d="m343.39 651.52c-0.12 1.55-0.05 49.75 7.83 26.12"/>
      <path id="path1616" style="stroke:#000000;stroke-width:1pt;fill:none" d="m353.83 642.38c-1.54 7.73-3.09 38.84-1.3 35.26"/>
      <path id="path1617" style="stroke:#000000;stroke-width:1pt;fill:none" d="m364.28 643.69c-0.87 6.96-5.8 47.79 1.3 30.03"/>
      <path id="path1618" style="stroke:#000000;stroke-width:1pt;fill:none" d="m373.42 647.61c0 6-2.29 43.75 5.22 28.72"/>
      <path id="path1619" style="stroke:#000000;stroke-width:1pt;fill:none" d="m386.48 643.69c0 10.05 0.17 39.78 2.61 30.03"/>
      <path id="path1620" style="stroke:#000000;stroke-width:1pt;fill:none" d="m395.62 641.08c-0.43 3.86-4.76 27.42 0 27.42"/>
      <path id="path1621" style="stroke:#000000;stroke-width:1pt;fill:none" d="m407.37 637.16c1.3 8.45 0.48 30.86 6.52 24.81"/>
      <path id="path1622" style="stroke:#000000;stroke-width:1pt;fill:none" d="m411.28 629.33c7.02 10.52 10.71 22.55 18.28 32.64"/>
      <path id="path1623" style="stroke:#000000;stroke-width:1pt;fill:none" d="m424.34 625.41c11.76 10.59 22.84 20.22 26.11 36.56"/>
      <path id="path1624" style="stroke:#000000;stroke-width:1pt;fill:none" d="m440.01 628.02c6.43 6.43 22.19 24.23 22.19 32.64"/>
      <path id="path1625" style="stroke:#000000;stroke-width:1pt;fill:none" d="m454.37 635.86c2.81 8.44 2.61 17.31 2.61 26.11"/>
      <path id="path1626" style="stroke:#000000;stroke-width:1pt;fill:none" d="m268.97 665.89c13.96-6.99 47.49 2.28 54.83 16.97 8.99 8.99 20.18 11.75 32.65 11.75 20.04 0 36.93-12.17 56.14-16.97 14.25 0 53.53 6.17 53.53-18.28"/>
      <path id="path1627" style="stroke:#000000;stroke-width:1pt;fill:none" d="m171.04 487.01c-2.65 18.54 4.3 62.5 10.45 80.95 0 24.62 10.83 51.54 15.66 75.73 5.72 28.58 22.16 51.74 39.17 74.42 12.44 16.58 27.14 32.5 45.7 41.78 26.2 8.74 42.46 11.76 70.51 11.76 20.45 0 39.98-13.06 58.75-13.06 14.27-4.76 61.05-12.42 67.9-26.11 15.09-15.09 27.04-32.83 33.94-53.54 5.58-22.28 16.98-44.52 16.98-67.89 6.07-24.27 13.42-47.54 18.28-71.81 0-19.92 10.44-41.17 10.44-62.67 0-4.27 0.67-8.47-2.61-11.75"/>
      <path id="path1629" style="stroke:#000000;stroke-width:1pt;fill:none" d="m409.98 462.2c-8.34 20.85 8.59 37.04 19.58 53.54 14.69 14.69 34.37 25.23 49.62 40.47 22.89 7.63 20.89 41.31 20.89 60.06 0 6.44-2.96 40.31-10.45 36.56"/>
      <path id="path1630" style="stroke:#000000;stroke-width:1pt;fill:none" d="m332.94 468.73c-29.2 29.21-67.09 44.01-100.53 67.9-6.67 7.77-10.23 13.23-19.59 16.97"/>
      <path id="path1633" style="stroke:#000000;stroke-width:1pt;fill:none" d="m188.02 621.49c-30.36 30.36-84.68 40.62-121.43 62.68-18.304 9.15-52.446 33.29-58.756 52.22-0.6679 1.34-8.6413 14.36-3.917 14.36"/>
      <path id="path1637" style="stroke:#000000;stroke-width:1pt;fill:none" d="m527.49 618.88c51.44 0 65.48 18.02 58.75 71.81-20.43 40.86-33.14 70.76-74.42 91.4-28.21 11.28-62.23 20.89-92.7 20.89-37.37 0-74.82 4.88-112.29-2.61-30.48-15.24-61.87-27.67-92.7-43.09-12.33-12.33-41.81-41.72-31.34-62.67 0-4.35 6.3-39.17 11.75-39.17 0-3.93 1.31-6.36 1.31-10.44"/>
      <path id="path1638" style="stroke:#000000;stroke-width:1pt;fill:none" d="m672.42 628.02c23.33 10 47.06 20.27 69.2 31.34"/>
      <path id="path1639" style="stroke:#000000;stroke-width:1pt;fill:none" d="m660.66 612.35c1.18 17.71 8.34 53.64-9.14 65.29"/>
      <path id="path1640" style="stroke:#000000;stroke-width:1pt;fill:none" d="m633.25 609.74c2.16 23.82 9.7 50.47 0 73.12"/>
      <path id="path1641" style="stroke:#000000;stroke-width:1pt;fill:none" d="m599.3 611.05c13.67 33.04 16.97 32.28 16.97 62.67"/>
    </g>
    <path id="path2369" style="fill-rule:evenodd;fill:#777777" d="m0 753.26c-5.8971 5.89 11.266-35.35 33.09-53.21 40.512-21.81 82.13-39.76 123.28-60.34 7.72-4.41 26.11-21.41 34.38-21.41 6.28 0 8.14 22.94 6.49 27.9 0 7.69-12.71 30.49-14.92 41.52-2.38 19.03 0.58 36.38 12.98 51.26 20.52 20.53 46.46 34.81 72.66 46.72 27.03 9.01 54.59 8.2 82.4 11.68 30.74 6.14 59.61 4.27 89.54-3.9 24.48-6.12 48.02-13.98 72.67-19.46 26.96-8.09 46.15-21.69 60.99-45.42 9.47-20.83 14.21-45.98 11.68-68.77-6.52-16.29-7.73-30.46-23.36-40.88-7.08-7.08-15.69-9.73-25.95-9.73-3.08 0 29.76-0.13 59.69 2.59 23.87 5.31 45.5 19.34 69.42 24.66 16.31 6.11 33.19 15.27 49.96 19.46 21.73 5.43 10.84 25.26 6.49 44.12-2.28 45.48-1.3 91.33-1.3 136.9 0 11.96-3.38 97.16-7.78 98.62-88.36 8.04-176.83 0.62-265.37 11.68-109.55 13.7-217.57 21.11-326.36-0.65-20.17-4.38-112.45-1.71-123.92-24.65-2.3124-23.08-10.221-52.64-5.1947-75.26"/>
  </g>
  <metadata>
    <rdf:RDF>
      <cc:Work>
        <dc:format>image/svg+xml</dc:format>
        <dc:type rdf:resource="http://purl.org/dc/dcmitype/StillImage"/>
        <cc:license rdf:resource="http://creativecommons.org/licenses/publicdomain/"/>
        <dc:publisher>
          <cc:Agent rdf:about="http://openclipart.org/">
            <dc:title>Openclipart</dc:title>
          </cc:Agent>
        </dc:publisher>
        <dc:title>Einstein</dc:title>
        <dc:date>2009-04-18T17:13:43</dc:date>
        <dc:description>from the Old OCAL database</dc:description>
        <dc:source>https://openclipart.org/detail/25015/einstein-by-anonymous-25015</dc:source>
        <dc:creator>
          <cc:Agent>
            <dc:title>Anonymous</dc:title>
          </cc:Agent>
        </dc:creator>
        <dc:subject>
          <rdf:Bag>
            <rdf:li>einstein</rdf:li>
            <rdf:li>famous</rdf:li>
            <rdf:li>famous-people</rdf:li>
            <rdf:li>person</rdf:li>
            <rdf:li>science</rdf:li>
          </rdf:Bag>
        </dc:subject>
      </cc:Work>
      <cc:License rdf:about="http://creativecommons.org/licenses/publicdomain/">
        <cc:permits rdf:resource="http://creativecommons.org/ns#Reproduction"/>
        <cc:permits rdf:resource="http://creativecommons.org/ns#Distribution"/>
        <cc:permits rdf:resource="http://creativecommons.org/ns#DerivativeWorks"/>
      </cc:License>
    </rdf:RDF>
  </metadata>
</svg>